<svg xmlns="http://www.w3.org/2000/svg" viewBox="0 0 512 512" role="img" aria-label="TalkWithMe icon"><defs><linearGradient id="g" x1="0%" y1="0%" x2="100%" y2="100%"><stop offset="0%" stop-color="#b91c1c"/><stop offset="100%" stop-color="#7c0f13"/></linearGradient></defs><rect width="512" height="512" rx="112" fill="url(#g)"/><path fill="#fff" fill-opacity="0.9" d="M136 140c-18 0-32 14-32 32v132c0 18 14 32 32 32h94l62 52c4 3 10 0 10-5v-47h74c18 0 32-14 32-32V172c0-18-14-32-32-32H136zm16 66h208c6 0 10 4 10 10v12c0 6-4 10-10 10H152c-6 0-10-4-10-10v-12c0-6 4-10 10-10zm0 70h146c6 0 10 4 10 10v12c0 6-4 10-10 10H152c-6 0-10-4-10-10v-12c0-6 4-10 10-10z"/></svg>